<?xml version="1.0" encoding="UTF-8"?>
<svg xmlns="http://www.w3.org/2000/svg" width="32" height="36" viewBox="0 0 46.75 65.19">
  <path fill="#fff" d="
    M18.99 2.4v8.06l-2.78 1.83V1.79L17.6 0.13h12.78l1.5 1.33v11.5l-2.67-3-0.17-7.67h-2.33v4.25l-1.23-0.02v3.36l4.06 5.25v5.31H18.54v-5.31l3.84-5.25-0.02-3.34-1.46-0.04-0.05-4.12-1.86 0.02z
    M18.54 21.73h11v27.75h-11z
    M18.54 50.67h11v5.62l-4.96 8.67-6.04-8.67v-5.62z
    M39.98 14.29v4.16l-1.44 0.95v-5.42l0.72-0.86h6.59l0.78 0.68v5.94l-1.38-1.55-0.08-3.96h-1.21v2.2l-0.63-0.01v1.73l2.09 2.71v2.74h-5.67v-2.74l1.98-2.71-0.01-1.72-0.76-0.02-0.02-2.13-0.96 0.01z
    M39.75 24.27h5.68v14.33h-5.68z
    M39.75 39.21h5.67v2.9l-2.55 4.48-3.12-4.48v-2.9z
    M1.94 6.56v5.28L0.13 13.03V6.16l0.9-1.09h8.36l0.99 0.88v7.52l-1.75-1.96-0.11-5.02H7v2.78l-0.81-0.01v2.19l2.66 3.44v3.47H1.65v-3.47l2.51-3.44-0.01-2.18-0.96-0.03-0.02-2.69-1.23 0.01z
    M1.65 19.21h7.2v18.16h-7.2z
    M1.65 38.14h7.2v3.68L5.61 47.49 1.65 41.82v-3.68z" />
</svg>

