<?xml version="1.0" encoding="utf-8"?>
<svg version="1.1" xmlns="http://www.w3.org/2000/svg" x="0px" y="0px" width="36px" height="32px" viewBox="0 0 463.34 485.24" enable-background="new 0 0 463.34 485.24" xml:space="preserve">
  <path fill="#FFFFFF" d="M463.34,485.17l-4.17,0.07l-9.89-9L369.44,347.16s-11-0.65-17.63-8.12l-0.65-29.92l-46.67-0.33
    l0.17,10.5L188.73,320l-0.06-9l-42.25,0.18L140,313.85l0.58,30.58l-8.48,6.8l-10.08,0.08L42.12,469.53
    c0,0-6.46,7.69-12.48,12.28l-8,0.32l-0.07-4.22c0,0,13.74-29.77,88.1-132.32c0,0-1.86-5.52-0.16-10.44l4.1-14.29l-5.55-6.8
    l-46.63,3.3l-8.21-6.64l-2.86-19.18l-0.26-100L80.43,175l9,60.00l38.18-55.63l47.63,35.23l-2.0-52.3l50.19-22.46l-50-27.7
    l0.95-1.45l7.54-11.42l43.61-0.7l0.21,13l37.65-0.05l1-13.11l47.34-1.67l13.35,11.54L342.62,94l-0.06-3.83l33-12.45l6.61,1.81
    l0.17,10.41l-34.93,15.32l-3.81-3.77l-13.29,13.46l2.44,5.63l0.34,6.16c0,0,83.33-0.75,95.71,2.13l8.54,7.19L440,302l-8.05,7.55
    c0,0-46.43-0.58-46.59-0.17s-3.24,5.48-3.24,5.48l0.37,29C382.49,343.86,451.12,454.52,463.34,485.17z"/>
  
    <path fill="#FFFFFF" d="M208.92,138.89L163.23,115l0.82-1.25l34.57-52.37l-55.39,16.4l-6.17-62L105.63,73.22
    L54.42,27.45l20.46,65.67L15.44,99.24l44.66,35.27l5.16,4.07L50,168.64l-8.58,16.92L50,181.07l37.6-19.56l6,51.67
    l32.93-44.52l41.94,33L166.12,156.9L208.92,138.89z M107.28,164.5l-2.67-22.9L84.15,152.25l10.36-20.4l0.2-0.4L72.64,114
    l26.36-2.71l-9-29.09l22.68,20.3l13.93-25.45l2.73,27.46l24.53-7.27L138.12,121l17.27,9l3,1.53L135,139.42l5.46,20
    L121.9,144.81L107.28,164.5z"/>
</svg>
