<?xml version="1.0" encoding="UTF-8"?>
<svg xmlns="http://www.w3.org/2000/svg" width="35" height="32" viewBox="0 0 77.71 78.76">
  <path fill="#fff" d="
    M50.41 20.49l5.42-4.5v-10.75l4.33-4.08v6.58l1.83 1.67 3.25-2.67 6.5 6.67-2.41 2.33 1.91 1.92 5.34-0.17-4.75 5.42-9.59 0.5-4.91 4.5-6.92-7.42z
    M38.33 33.24l10.5-10.5 6.91 6.83-9.75 10.67-7.66-7.9z
    M36.66 35.08l6.92 6.83-3.92 4.42 3.3 3.31-3.55 3.27-6.56-0.36-13.11 13.78-7.11-6.45 13.34-13.33-0.82-5.76 3.39-3.87 3.87 3.32 3.25-3.75z
    M10.91 61.07l-9.58 10.42s-4.17 9.71 6.21 5.88l10.54-9.59z
  "/>
  <polygon fill="#a7a9ac" points="
    9.29 41.33 9.29 55.08 21.33 43.83 21.33 38.41 29.33 32.41 33.91 32.41 46.08 20.41 9.29 41.33
  "/>
  <polygon fill="#a7a9ac" points="
    39.49 20.41 9.29 36.41 9.83 13.16 14.74 27.16 39.49 20.41
  "/>
  <path fill="#a7a9ac" d="
    M23.74,68.91c.25-.25,10.84-12.17,10.84-12.17h5.5l6.33-7.17V44.49l8.92-6.75L37.83,68.91Z
  "/>
  <polygon fill="#a7a9ac" points="
    42.49 68.08 57.58 40.74 51.91 63.41 62.91 68.08 42.49 68.08
  "/>
</svg>
