<?xml version="1.0" encoding="utf-8"?>
<svg xmlns="http://www.w3.org/2000/svg" version="1.1" width="30px" height="32" viewBox="0 0 137.43 161.1">
  <path fill="#fe9d00" d="M84.78,148.72C82.55,154,83.89,161.51,74.71,161c-7.72-0.48-1.9-8.46-6.66-11.26c-0.57,2.59-1.31,5-1.6,7.54c-0.38,3.15-1.71,4.25-5,3.74c-4.92-0.76-8.77-2.08-7.88-8.29c0.15-1-0.49-2.16-1.62-3.34c-0.8,2.85-1.61,5.71-2.38,8.44c-5.88,0.62-8.17-4.13-9.47-10.9c-1.53-7.91-1.27-8.9-9.45-9.36C21.19,137,16.32,132.1,13.32,124c-0.15-0.44-0.42-0.91-0.65-1.35c-5.62-8.31-6.35-15.77,1-24.17c6.44-7.34,5.41-17.12,4-26.34c-0.31-1.43-0.72-2.4-1.17-2.74c-0.22-0.4-0.72-0.64-1.44-1.24c0,4,0.3,7.63-0.12,11.19c-0.22,1.79-1.75,3.41-2.68,5.11c-1.59-1-3.59-1.73-4.69-3.13c-7.54-9.61-9.3-20.47-6.06-32.1C8.81,23.18,25.61,6.9,52,0.63C53.42,0.3,54.92,0.3,57.68,0c-4.16,12.77-8.09,24.79-12.33,37.81l22.52-1.53c-4,13.91-7.77,26.93-11.52,40l1.52,0.82l45.29-57.6l-0.87-1.29L75.51,19.88c2.54-6.55,4.62-12.26,7.07-17.8c0.33-0.74,2.59-1.12,3.83-0.91c26.48,4.64,50.43,32.56,51,59.4c0.15,9.72-2.49,17.06-7.17,21.36c-3.06,4-5.85,3.63-7.32-1.19c-1.09-3.6-1.15-7.51-1.82-12.37c-1,2.33-2.09,3.85-2.24,5.45c-0.91,9.6-1,19.22,5.65,27.11c4.52,5.36,4.81,10.65,1.59,16.54c-0.5,0.88-1.17,2.12-1.64,3.64c-3.2,9.84-8.71,16.92-20,17.51c-4.48,0.22-6.43,3-7.21,7.34c-0.61,3.4-1.66,6.47-3.66,9.22c-1.07,1.66-3.63,2.36-5.52,3.49C86.41,153.26,85.89,154,84.78,148.72z"/>
  <path fill="#000000" d="M104.8,87.21c9.24,1,10.84,2.45,10.9,11.33c-0.17,4.34-0.45,9.23-1,11.39c-0.64,2.37-1.71,4.26-3.07,5.41c-7.72,6.5-21.33,6.06-29.24-0.13c-7.8-6.12-6.24-20.17,3.38-22.58C92.19,91,98.47,89,104.8,87.21z"/>
  <path fill="#000000" d="M21,100.77c0.77-10.71,4.33-14.48,14.74-12.64c6.7,1.19,13.29,4.08,19.4,7.24c5.06,2.62,5.74,10.85,2.29,16c-6.61,10-24.93,12-32.59,2.86C22.13,111,22.23,105.33,21,100.77z"/>
  <path fill="#000000" d="M65.18,109.77 L68.74,119 C70.13,115.36,71.10,112.85,72.06,110.36 C81.88,113.45,76.74,128.19,67.40,139.88 C64.71,132,62,125,60,117.73 C59.10,114.41,60.79,111.3,65.18,109.77 Z"/>
</svg>

