<svg xmlns="http://www.w3.org/2000/svg" version="1.1" width="30" height="32" viewBox="0 0 137.43 161.1">
  <g id="Layer_1">
    <path fill="#FFFFFF" d="M84.78,148.72C82.55,154,83.89,161.51,74.71,161c-7.72-.48-1.9-8.46-6.66-11.26-.57,2.59-1.31,5-1.6,7.54-.38,3.15-1.71,4.25-5,3.74-4.92-.76-8.77-2.08-7.88-8.29.15-1-.49-2.16-1.62-3.34-.8,2.85-1.61,5.71-2.38,8.44-5.88.62-8.17-4.13-9.47-10.9-1.53-7.91-1.27-8.9-9.45-9.36C21.19,137,16.32,132.1,13.32,124a6.47,6.47,0,0,0-.65-1.35c-5.62-8.31-6.35-15.77,1-24.17,6.44-7.34,5.41-17.12,4-26.34a8.9,8.9,0,0,0-1.17-2.74c-.22-.4-.72-.64-1.44-1.24,0,4,.3,7.63-.12,11.19-.22,1.79-1.75,3.41-2.68,5.11-1.59-1-3.59-1.73-4.69-3.13-7.54-9.61-9.3-20.47-6.06-32.1C8.81,23.18,25.61,6.9,52,.63,53.42.3,54.92.3,57.68,0c-4.16,12.77-8.09,24.79-12.33,37.81l22.52-1.53c-4,13.91-7.77,26.93-11.52,40l1.52.82,45.29-57.6-.87-1.29L75.51,19.88c2.54-6.55,4.62-12.26,7.07-17.8.33-.74,2.59-1.12,3.83-.91,26.48,4.64,50.43,32.56,51,59.4a33,33,0,0,1-7.17,21.36c-3.06,4-5.85,3.63-7.32-1.19-1.09-3.6-1.15-7.51-1.82-12.37-1,2.33-2.09,3.85-2.24,5.45-.91,9.6-1,19.22,5.65,27.11,4.52,5.36,4.81,10.65,1.59,16.54a21.23,21.23,0,0,0-1.64,3.64c-3.2,9.84-8.71,16.92-20,17.51-4.48.22-6.43,3-7.21,7.34a25.88,25.88,0,0,1-3.66,9.22c-1.07,1.66-3.63,2.36-5.52,3.49A44.37,44.37,0,0,1,85.89,154,46.39,46.39,0,0,1,84.78,148.72Z"/>
    <path fill="#FFFFFF" d="M104.8,87.21C98.47,89,92.19,91,85.8,92.63c-9.62,2.41-11.18,16.46-3.38,22.58s21.52,6.63,29.24.13a10,10,0,0,0,3.07-5.41,58.68,58.68,0,0,0,1-11.39C115.64,89.66,114,88.23,104.8,87.21Z"/>
    <path fill="#FFFFFF" d="M21,100.77c1.2,4.56,1.1,10.22,3.84,13.5,7.66,9.16,26,7.11,32.59-2.86,3.45-5.19,2.77-13.42-2.29-16-6.11-3.16-12.7-6.05-19.4-7.24C25.36,86.29,21.8,90.06,21,100.77Z"/>
    <path fill="#FFFFFF" d="M65.18,109.77c-4.39,1.53-6.08,4.64-5.18,8,2,7.26,4.71,14.3,7.4,22.16,9.34-11.69,14.48-26.43,4.66-29.52-1,2.49-1.93,5-3.32,8.64Z"/>
    <path fill="#000000" d="M104.8,87.21c9.24,1,10.84,2.45,10.9,11.33a58.68,58.68,0,0,1-1,11.39,10,10,0,0,1-3.07,5.41c-7.72,6.5-21.33,6.06-29.24-.13S76.18,95,85.8,92.63C92.19,91,98.47,89,104.8,87.21Z"/>
    <path fill="#000000" d="M21,100.77c.77-10.71,4.33-14.48,14.74-12.64,6.7,1.19,13.29,4.08,19.4,7.24,5.06,2.62,5.74,10.85,2.29,16-6.61,10-24.93,12-32.59,2.86C22.13,111,22.23,105.33,21,100.77Z"/>
    <path fill="#000000" d="M65.18,109.77,68.74,119c1.39-3.64,2.36-6.15,3.32-8.64,9.82,3.09,4.68,17.83-4.66,29.52C64.71,132,62,125,60,117.73,59.1,114.41,60.79,111.3,65.18,109.77Z"/>
  </g>
</svg>
