<?xml version="1.0" encoding="UTF-8"?>
<svg xmlns="http://www.w3.org/2000/svg" width="32" height="32" viewBox="10 12 77.71 78.76">
  <path fill="#f8fafa" d="
    M 77.5,67.5 C 78.1471,68.2739 78.4805,69.2739 78.5,70.5C 78.6598,72.3545 77.9931,73.6879 76.5,74.5C 77.2186,72.2362 77.552,69.9029 77.5,67.5 Z
    M 19.5,75.5 C 20.5676,76.4345 21.901,76.7678 23.5,76.5C 21.0304,77.6932 18.3637,78.1932 15.5,78C 16.6934,76.9054 18.0267,76.072 19.5,75.5 Z
    M 68.5,43.5 C 69.9348,44.7898 70.9348,46.4565 71.5,48.5C 72.6223,47.3698 73.9557,46.7031 75.5,46.5C 74.3126,48.9754 72.3126,49.9754 69.5,49.5C 69.4828,47.4352 69.1495,45.4352 68.5,43.5 Z
    M 26.5,44.5 C 28.4147,44.2155 30.0813,44.5489 31.5,45.5C 25.876,44.4571 22.876,46.7905 22.5,52.5C 21.8333,52.1667 21.1667,51.8333 20.5,51.5C 19.5344,53.396 19.2011,55.396 19.5,57.5C 19.1667,57.5 18.8333,57.5 18.5,57.5C 17.8648,51.099 20.5315,46.7657 26.5,44.5 Z
    M 82.5,40.5 C 83.625,41.3478 83.625,42.3478 82.5,43.5C 80.6053,44.973 78.9387,46.6397 77.5,48.5C 77.5,47.1667 76.8333,46.5 75.5,46.5C 75.5,46.1667 75.5,45.8333 75.5,45.5C 76.7095,45.0679 77.7095,44.4013 78.5,43.5C 79.8333,42.5 81.1667,41.5 82.5,40.5 Z
    M 52.5,22.5 C 55.1092,23.4431 57.1092,25.1097 58.5,27.5C 58.2011,29.604 58.5344,31.604 59.5,33.5C 60.086,33.2907 60.586,32.9574 61,32.5C 61.4955,34.4727 61.6621,36.4727 61.5,38.5C 60.7659,39.7079 60.4326,41.0413 60.5,42.5C 63.2788,42.2786 65.9455,42.612 68.5,43.5C 69.1495,45.4352 69.4828,47.4352 69.5,49.5C 72.3126,49.9754 74.3126,48.9754 75.5,46.5C 76.8333,46.5 77.5,47.1667 77.5,48.5C 76.8333,49.5 76.1667,50.5 75.5,51.5C 74.5416,51.9528 73.7083,52.6195 73,53.5C 72.6667,55.8333 72.3333,58.1667 72,60.5C 69.0899,61.4503 67.9232,63.4503 68.5,66.5C 71.1667,66.5 73.8333,66.5 76.5,66.5C 76.5,67.1667 76.8333,67.5 77.5,67.5C 77.552,69.9029 77.2186,72.2362 76.5,74.5C 72.7985,75.6676 69.1318,76.8343 65.5,78C 61.6378,78.6454 57.8045,78.4787 54,77.5C 49.8555,78.1645 45.6888,78.6645 41.5,79C 40.9747,79.6924 40.3081,80.1924 39.5,80.5C 38.8302,78.7086 38.1635,77.0419 37.5,75.5C 32.8626,74.3224 28.196,74.6558 23.5,76.5C 21.901,76.7678 20.5676,76.4345 19.5,75.5C 22.0884,74.9124 23.7551,73.2457 24.5,70.5C 22.1459,68.7539 21.1459,66.4206 21.5,63.5C 20.8333,61.5 20.1667,59.5 19.5,57.5C 19.2011,55.396 19.5344,53.396 20.5,51.5C 21.1667,51.8333 21.8333,52.1667 22.5,52.5C 22.876,46.7905 25.876,44.4571 31.5,45.5C 32.1495,47.4352 32.4828,49.4352 32.5,51.5C 33.8333,51.5 35.1667,51.5 36.5,51.5C 36.7845,49.5853 36.4511,47.9187 35.5,46.5C 34.5,44.5 33.5,42.5 32.5,40.5C 32.5,39.8333 32.8333,39.5 33.5,39.5C 35.2972,40.7298 37.2972,41.3964 39.5,41.5C 39.5674,40.0413 39.2341,38.7079 38.5,37.5C 38.1134,33.5559 38.78,29.8892 40.5,26.5C 40.5,26.1667 40.5,25.8333 40.5,25.5C 44.0088,22.8851 48.0088,21.8851 52.5,22.5 Z
    M 31.5,45.5 C 32.9348,46.7898 33.9348,48.4565 34.5,50.5C 35.4287,49.3112 35.762,47.9778 35.5,46.5C 36.4511,47.9187 36.7845,49.5853 36.5,51.5C 35.1667,51.5 33.8333,51.5 32.5,51.5C 32.4828,49.4352 32.1495,47.4352 31.5,45.5 Z
    M 33.5,39.5 C 32.8333,39.5 32.5,39.8333 32.5,40.5C 31.8333,40.1667 31.1667,39.8333 30.5,39.5C 28.256,36.7886 26.756,33.7886 26,30.5C 28.9847,33.1616 31.4847,36.1616 33.5,39.5 Z
    M 40.5,26.5 C 38.78,29.8892 38.1134,33.5559 38.5,37.5C 37.3622,34.6965 37.1955,31.6965 38,28.5C 38.7083,27.6195 39.5416,26.9528 40.5,26.5 Z
    M 64.5,31.5 C 62.9805,33.5884 61.9805,35.9217 61.5,38.5C 61.6621,36.4727 61.4955,34.4727 61,32.5C 60.586,32.9574 60.086,33.2907 59.5,33.5C 58.5344,31.604 58.2011,29.604 58.5,27.5C 59.1614,28.7175 59.8281,30.0508 60.5,31.5C 62.1667,29.5 63.8333,27.5 65.5,25.5C 65.8333,25.8333 66.1667,26.1667 66.5,26.5C 65.5435,28.0754 64.8769,29.742 64.5,31.5 Z" />
</svg>

