<?xml version="1.0" encoding="UTF-8"?>
<svg xmlns="http://www.w3.org/2000/svg" width="30" height="35" viewBox="40 10 20 75">
  <path fill="#f1f3f5" d="
      M50.5 44.5
      L50.5 58.5
      L44.5 58.5
      L44.5 46.5
      L45.5 46.5
      L47.5 44.5
      L50.5 46.5
      Z
    "/>

  
  <path fill="#f1f3f5" d="
      M41.5 11.5
      H53.5
      V42.5
      H41.5
      Z
    "/>
    
  <path fill="#f1f3f5" d="
      M33.5 14.5
      H37.5
      V38.5
      H33.5
      Z
    "/>
    
  <path fill="#f1f3f5" d="
      M34.5 14.5
      H37.5
      V38.5
      H34.5
      Z
    "/>

  <path fill="#f1f3f5" d="
    M57.5 14.5
    C58.8333 14.5 60.1667 14.5 61.5 14.5
    C61.5 22.8333 61.5 31.1667 61.5 39.5
    C60.1667 39.5 58.8333 39.5 57.5 39.5
    C57.5 31.1667 57.5 22.8333 57.5 14.5
    Z
  "/>

  <path fill="#f1f3f5" d="
    M58.5 67.5
    C59.1667 70.1667 60.8333 71.8333 63.5 72.5
    C65.764 73.5813 67.9307 74.9146 70 76.5
    C70.4828 77.448 70.6495 78.448 70.5 79.5
    C68.7085 79.634 67.0418 79.3007 65.5 78.5
    C60.5503 76.02 55.8836 73.02 51.5 69.5
    C51.1244 72.3733 51.1244 75.3733 51.5 78.5
    C48.8333 78.5 46.1667 78.5 43.5 78.5
    C43.2924 76.0799 43.6258 73.7466 44.5 71.5
    C44 71.1667 43.5 70.8333 43 70.5
    C37.7478 72.6232 33.2478 75.6232 29.5 79.5
    C27.8333 79.5 26.1667 79.5 24.5 79.5
    C24.281 78.325 24.6143 77.325 25.5 76.5
    C28.1947 74.8224 30.8614 73.1558 33.5 71.5
    C35.5 69.8333 37.5 68.1667 39.5 66.5
    C39.3505 67.552 39.5172 68.552 40 69.5
    C43.6375 68.122 45.1375 65.4554 44.5 61.5
    C46.5 61.5 48.5 61.5 50.5 61.5
    C49.7869 65.7272 51.4536 68.3938 55.5 69.5
    C56.2652 68.3881 57.2652 67.7214 58.5 67.5
    Z
  "/>
</svg>

